<mxfile host="app.diagrams.net" modified="2022-10-27T09:49:33.138Z" agent="5.0 (Macintosh)" etag="a4NNnbbYUXfCpM6HXQRz" version="20.2.3" type="github">
  <diagram id="_lKv2DnUR_uHU-EhaWKQ" name="Page-1">
    <mxGraphModel dx="1025" dy="971" grid="1" gridSize="10" guides="1" tooltips="1" connect="1" arrows="1" fold="1" page="1" pageScale="1" pageWidth="850" pageHeight="1100" math="0" shadow="0">
      <root>
        <mxCell id="0" />
        <mxCell id="1" parent="0" />
        <mxCell id="b76iKxbdRcVmEuxKpmtq-1" value="" style="whiteSpace=wrap;html=1;aspect=fixed;" vertex="1" parent="1">
          <mxGeometry x="60" y="180" width="60" height="60" as="geometry" />
        </mxCell>
        <mxCell id="b76iKxbdRcVmEuxKpmtq-2" value="" style="whiteSpace=wrap;html=1;aspect=fixed;" vertex="1" parent="1">
          <mxGeometry x="120" y="180" width="60" height="60" as="geometry" />
        </mxCell>
        <mxCell id="b76iKxbdRcVmEuxKpmtq-4" value="" style="whiteSpace=wrap;html=1;aspect=fixed;" vertex="1" parent="1">
          <mxGeometry x="180" y="180" width="60" height="60" as="geometry" />
        </mxCell>
        <mxCell id="b76iKxbdRcVmEuxKpmtq-5" value="" style="whiteSpace=wrap;html=1;aspect=fixed;" vertex="1" parent="1">
          <mxGeometry x="240" y="180" width="60" height="60" as="geometry" />
        </mxCell>
        <mxCell id="b76iKxbdRcVmEuxKpmtq-8" value="" style="whiteSpace=wrap;html=1;aspect=fixed;" vertex="1" parent="1">
          <mxGeometry x="60" y="240" width="60" height="60" as="geometry" />
        </mxCell>
        <mxCell id="b76iKxbdRcVmEuxKpmtq-9" value="" style="whiteSpace=wrap;html=1;aspect=fixed;" vertex="1" parent="1">
          <mxGeometry x="120" y="240" width="60" height="60" as="geometry" />
        </mxCell>
        <mxCell id="b76iKxbdRcVmEuxKpmtq-10" value="" style="whiteSpace=wrap;html=1;aspect=fixed;" vertex="1" parent="1">
          <mxGeometry x="180" y="240" width="60" height="60" as="geometry" />
        </mxCell>
        <mxCell id="b76iKxbdRcVmEuxKpmtq-11" value="" style="whiteSpace=wrap;html=1;aspect=fixed;" vertex="1" parent="1">
          <mxGeometry x="240" y="240" width="60" height="60" as="geometry" />
        </mxCell>
        <mxCell id="b76iKxbdRcVmEuxKpmtq-12" value="" style="whiteSpace=wrap;html=1;aspect=fixed;" vertex="1" parent="1">
          <mxGeometry x="60" y="300" width="60" height="60" as="geometry" />
        </mxCell>
        <mxCell id="b76iKxbdRcVmEuxKpmtq-13" value="" style="whiteSpace=wrap;html=1;aspect=fixed;" vertex="1" parent="1">
          <mxGeometry x="120" y="300" width="60" height="60" as="geometry" />
        </mxCell>
        <mxCell id="b76iKxbdRcVmEuxKpmtq-14" value="" style="whiteSpace=wrap;html=1;aspect=fixed;" vertex="1" parent="1">
          <mxGeometry x="180" y="300" width="60" height="60" as="geometry" />
        </mxCell>
        <mxCell id="b76iKxbdRcVmEuxKpmtq-15" value="" style="whiteSpace=wrap;html=1;aspect=fixed;" vertex="1" parent="1">
          <mxGeometry x="240" y="300" width="60" height="60" as="geometry" />
        </mxCell>
        <mxCell id="b76iKxbdRcVmEuxKpmtq-16" value="" style="whiteSpace=wrap;html=1;aspect=fixed;" vertex="1" parent="1">
          <mxGeometry x="300" y="180" width="60" height="60" as="geometry" />
        </mxCell>
        <mxCell id="b76iKxbdRcVmEuxKpmtq-17" value="" style="whiteSpace=wrap;html=1;aspect=fixed;" vertex="1" parent="1">
          <mxGeometry x="300" y="240" width="60" height="60" as="geometry" />
        </mxCell>
        <mxCell id="b76iKxbdRcVmEuxKpmtq-18" value="" style="whiteSpace=wrap;html=1;aspect=fixed;" vertex="1" parent="1">
          <mxGeometry x="300" y="300" width="60" height="60" as="geometry" />
        </mxCell>
        <mxCell id="b76iKxbdRcVmEuxKpmtq-19" value="" style="whiteSpace=wrap;html=1;aspect=fixed;fontSize=24;" vertex="1" parent="1">
          <mxGeometry x="210" y="360" width="60" height="60" as="geometry" />
        </mxCell>
        <mxCell id="b76iKxbdRcVmEuxKpmtq-20" value="" style="whiteSpace=wrap;html=1;aspect=fixed;fontSize=24;" vertex="1" parent="1">
          <mxGeometry x="270" y="360" width="60" height="60" as="geometry" />
        </mxCell>
        <mxCell id="b76iKxbdRcVmEuxKpmtq-21" value="" style="whiteSpace=wrap;html=1;aspect=fixed;fontSize=24;" vertex="1" parent="1">
          <mxGeometry x="330" y="360" width="60" height="60" as="geometry" />
        </mxCell>
        <mxCell id="b76iKxbdRcVmEuxKpmtq-22" value="" style="whiteSpace=wrap;html=1;aspect=fixed;" vertex="1" parent="1">
          <mxGeometry x="460" y="180" width="60" height="60" as="geometry" />
        </mxCell>
        <mxCell id="b76iKxbdRcVmEuxKpmtq-23" value="" style="whiteSpace=wrap;html=1;aspect=fixed;" vertex="1" parent="1">
          <mxGeometry x="520" y="180" width="60" height="60" as="geometry" />
        </mxCell>
        <mxCell id="b76iKxbdRcVmEuxKpmtq-24" value="" style="whiteSpace=wrap;html=1;aspect=fixed;" vertex="1" parent="1">
          <mxGeometry x="580" y="180" width="60" height="60" as="geometry" />
        </mxCell>
        <mxCell id="b76iKxbdRcVmEuxKpmtq-25" value="" style="whiteSpace=wrap;html=1;aspect=fixed;" vertex="1" parent="1">
          <mxGeometry x="640" y="180" width="60" height="60" as="geometry" />
        </mxCell>
        <mxCell id="b76iKxbdRcVmEuxKpmtq-26" value="" style="whiteSpace=wrap;html=1;aspect=fixed;" vertex="1" parent="1">
          <mxGeometry x="460" y="240" width="60" height="60" as="geometry" />
        </mxCell>
        <mxCell id="b76iKxbdRcVmEuxKpmtq-27" value="" style="whiteSpace=wrap;html=1;aspect=fixed;" vertex="1" parent="1">
          <mxGeometry x="520" y="240" width="60" height="60" as="geometry" />
        </mxCell>
        <mxCell id="b76iKxbdRcVmEuxKpmtq-28" value="" style="whiteSpace=wrap;html=1;aspect=fixed;" vertex="1" parent="1">
          <mxGeometry x="580" y="240" width="60" height="60" as="geometry" />
        </mxCell>
        <mxCell id="b76iKxbdRcVmEuxKpmtq-29" value="" style="whiteSpace=wrap;html=1;aspect=fixed;" vertex="1" parent="1">
          <mxGeometry x="640" y="240" width="60" height="60" as="geometry" />
        </mxCell>
        <mxCell id="b76iKxbdRcVmEuxKpmtq-30" value="" style="whiteSpace=wrap;html=1;aspect=fixed;" vertex="1" parent="1">
          <mxGeometry x="460" y="300" width="60" height="60" as="geometry" />
        </mxCell>
        <mxCell id="b76iKxbdRcVmEuxKpmtq-31" value="" style="whiteSpace=wrap;html=1;aspect=fixed;" vertex="1" parent="1">
          <mxGeometry x="520" y="300" width="60" height="60" as="geometry" />
        </mxCell>
        <mxCell id="b76iKxbdRcVmEuxKpmtq-32" value="" style="whiteSpace=wrap;html=1;aspect=fixed;" vertex="1" parent="1">
          <mxGeometry x="580" y="300" width="60" height="60" as="geometry" />
        </mxCell>
        <mxCell id="b76iKxbdRcVmEuxKpmtq-33" value="" style="whiteSpace=wrap;html=1;aspect=fixed;" vertex="1" parent="1">
          <mxGeometry x="640" y="300" width="60" height="60" as="geometry" />
        </mxCell>
        <mxCell id="b76iKxbdRcVmEuxKpmtq-34" value="" style="whiteSpace=wrap;html=1;aspect=fixed;" vertex="1" parent="1">
          <mxGeometry x="700" y="180" width="60" height="60" as="geometry" />
        </mxCell>
        <mxCell id="b76iKxbdRcVmEuxKpmtq-35" value="" style="whiteSpace=wrap;html=1;aspect=fixed;" vertex="1" parent="1">
          <mxGeometry x="700" y="240" width="60" height="60" as="geometry" />
        </mxCell>
        <mxCell id="b76iKxbdRcVmEuxKpmtq-36" value="" style="whiteSpace=wrap;html=1;aspect=fixed;" vertex="1" parent="1">
          <mxGeometry x="700" y="300" width="60" height="60" as="geometry" />
        </mxCell>
        <mxCell id="b76iKxbdRcVmEuxKpmtq-37" value="" style="whiteSpace=wrap;html=1;aspect=fixed;fontSize=24;" vertex="1" parent="1">
          <mxGeometry x="430" y="360" width="60" height="60" as="geometry" />
        </mxCell>
        <mxCell id="b76iKxbdRcVmEuxKpmtq-38" value="" style="whiteSpace=wrap;html=1;aspect=fixed;fontSize=24;" vertex="1" parent="1">
          <mxGeometry x="490" y="360" width="60" height="60" as="geometry" />
        </mxCell>
        <mxCell id="b76iKxbdRcVmEuxKpmtq-39" value="" style="whiteSpace=wrap;html=1;aspect=fixed;fontSize=24;" vertex="1" parent="1">
          <mxGeometry x="550" y="360" width="60" height="60" as="geometry" />
        </mxCell>
        <mxCell id="b76iKxbdRcVmEuxKpmtq-41" value="combos" style="text;html=1;strokeColor=none;fillColor=none;align=center;verticalAlign=middle;whiteSpace=wrap;rounded=0;fontSize=24;" vertex="1" parent="1">
          <mxGeometry x="60" y="120" width="130" height="50" as="geometry" />
        </mxCell>
        <mxCell id="b76iKxbdRcVmEuxKpmtq-42" value="1" style="text;html=1;strokeColor=#d6b656;fillColor=#fff2cc;align=center;verticalAlign=middle;whiteSpace=wrap;rounded=0;fontSize=24;" vertex="1" parent="1">
          <mxGeometry x="70" y="220" width="40" height="40" as="geometry" />
        </mxCell>
        <mxCell id="b76iKxbdRcVmEuxKpmtq-43" value="2" style="text;html=1;strokeColor=#d6b656;fillColor=#fff2cc;align=center;verticalAlign=middle;whiteSpace=wrap;rounded=0;fontSize=24;" vertex="1" parent="1">
          <mxGeometry x="130" y="220" width="40" height="40" as="geometry" />
        </mxCell>
        <mxCell id="b76iKxbdRcVmEuxKpmtq-44" value="3" style="text;html=1;strokeColor=#d6b656;fillColor=#fff2cc;align=center;verticalAlign=middle;whiteSpace=wrap;rounded=0;fontSize=24;" vertex="1" parent="1">
          <mxGeometry x="190" y="220" width="40" height="40" as="geometry" />
        </mxCell>
        <mxCell id="b76iKxbdRcVmEuxKpmtq-45" value="4" style="text;html=1;strokeColor=#d6b656;fillColor=#fff2cc;align=center;verticalAlign=middle;whiteSpace=wrap;rounded=0;fontSize=24;" vertex="1" parent="1">
          <mxGeometry x="250" y="220" width="40" height="40" as="geometry" />
        </mxCell>
        <mxCell id="b76iKxbdRcVmEuxKpmtq-46" value="5" style="text;html=1;strokeColor=#d6b656;fillColor=#fff2cc;align=center;verticalAlign=middle;whiteSpace=wrap;rounded=0;fontSize=24;" vertex="1" parent="1">
          <mxGeometry x="310" y="220" width="40" height="40" as="geometry" />
        </mxCell>
        <mxCell id="b76iKxbdRcVmEuxKpmtq-47" value="6" style="text;html=1;strokeColor=#d6b656;fillColor=#fff2cc;align=center;verticalAlign=middle;whiteSpace=wrap;rounded=0;fontSize=24;" vertex="1" parent="1">
          <mxGeometry x="470" y="220" width="40" height="40" as="geometry" />
        </mxCell>
        <mxCell id="b76iKxbdRcVmEuxKpmtq-48" value="7" style="text;html=1;strokeColor=#d6b656;fillColor=#fff2cc;align=center;verticalAlign=middle;whiteSpace=wrap;rounded=0;fontSize=24;" vertex="1" parent="1">
          <mxGeometry x="530" y="220" width="40" height="40" as="geometry" />
        </mxCell>
        <mxCell id="b76iKxbdRcVmEuxKpmtq-49" value="8" style="text;html=1;strokeColor=#d6b656;fillColor=#fff2cc;align=center;verticalAlign=middle;whiteSpace=wrap;rounded=0;fontSize=24;" vertex="1" parent="1">
          <mxGeometry x="590" y="220" width="40" height="40" as="geometry" />
        </mxCell>
        <mxCell id="b76iKxbdRcVmEuxKpmtq-50" value="9" style="text;html=1;strokeColor=#d6b656;fillColor=#fff2cc;align=center;verticalAlign=middle;whiteSpace=wrap;rounded=0;fontSize=24;" vertex="1" parent="1">
          <mxGeometry x="650" y="220" width="40" height="40" as="geometry" />
        </mxCell>
        <mxCell id="b76iKxbdRcVmEuxKpmtq-51" value="0" style="text;html=1;strokeColor=#d6b656;fillColor=#fff2cc;align=center;verticalAlign=middle;whiteSpace=wrap;rounded=0;fontSize=24;" vertex="1" parent="1">
          <mxGeometry x="710" y="220" width="40" height="40" as="geometry" />
        </mxCell>
        <mxCell id="b76iKxbdRcVmEuxKpmtq-52" value="esc" style="text;html=1;strokeColor=#d6b656;fillColor=#fff2cc;align=center;verticalAlign=middle;whiteSpace=wrap;rounded=0;fontSize=24;" vertex="1" parent="1">
          <mxGeometry x="70" y="280" width="40" height="40" as="geometry" />
        </mxCell>
        <mxCell id="b76iKxbdRcVmEuxKpmtq-53" value="`" style="text;html=1;strokeColor=#d6b656;fillColor=#fff2cc;align=center;verticalAlign=middle;whiteSpace=wrap;rounded=0;fontSize=24;" vertex="1" parent="1">
          <mxGeometry x="130" y="280" width="40" height="40" as="geometry" />
        </mxCell>
        <mxCell id="b76iKxbdRcVmEuxKpmtq-54" value="-" style="text;html=1;strokeColor=#d6b656;fillColor=#fff2cc;align=center;verticalAlign=middle;whiteSpace=wrap;rounded=0;fontSize=24;" vertex="1" parent="1">
          <mxGeometry x="190" y="280" width="40" height="40" as="geometry" />
        </mxCell>
        <mxCell id="b76iKxbdRcVmEuxKpmtq-55" value="=" style="text;html=1;strokeColor=#d6b656;fillColor=#fff2cc;align=center;verticalAlign=middle;whiteSpace=wrap;rounded=0;fontSize=24;" vertex="1" parent="1">
          <mxGeometry x="250" y="280" width="40" height="40" as="geometry" />
        </mxCell>
        <mxCell id="b76iKxbdRcVmEuxKpmtq-58" value="[" style="text;html=1;strokeColor=#d6b656;fillColor=#fff2cc;align=center;verticalAlign=middle;whiteSpace=wrap;rounded=0;fontSize=24;" vertex="1" parent="1">
          <mxGeometry x="530" y="280" width="40" height="40" as="geometry" />
        </mxCell>
        <mxCell id="b76iKxbdRcVmEuxKpmtq-59" value="]" style="text;html=1;strokeColor=#d6b656;fillColor=#fff2cc;align=center;verticalAlign=middle;whiteSpace=wrap;rounded=0;fontSize=24;" vertex="1" parent="1">
          <mxGeometry x="590" y="280" width="40" height="40" as="geometry" />
        </mxCell>
        <mxCell id="b76iKxbdRcVmEuxKpmtq-60" value="\" style="text;html=1;strokeColor=#d6b656;fillColor=#fff2cc;align=center;verticalAlign=middle;whiteSpace=wrap;rounded=0;fontSize=24;" vertex="1" parent="1">
          <mxGeometry x="650" y="280" width="40" height="40" as="geometry" />
        </mxCell>
        <mxCell id="b76iKxbdRcVmEuxKpmtq-61" value="/" style="text;html=1;strokeColor=#d6b656;fillColor=#fff2cc;align=center;verticalAlign=middle;whiteSpace=wrap;rounded=0;fontSize=24;" vertex="1" parent="1">
          <mxGeometry x="710" y="280" width="40" height="40" as="geometry" />
        </mxCell>
        <mxCell id="b76iKxbdRcVmEuxKpmtq-62" value="bspc" style="text;html=1;strokeColor=#d79b00;fillColor=#ffe6cc;align=center;verticalAlign=middle;whiteSpace=wrap;rounded=0;fontSize=24;" vertex="1" parent="1">
          <mxGeometry x="560" y="250" width="40" height="40" as="geometry" />
        </mxCell>
        <mxCell id="b76iKxbdRcVmEuxKpmtq-63" value="tab" style="text;html=1;strokeColor=#d79b00;fillColor=#ffe6cc;align=center;verticalAlign=middle;whiteSpace=wrap;rounded=0;fontSize=24;" vertex="1" parent="1">
          <mxGeometry x="560" y="190" width="40" height="40" as="geometry" />
        </mxCell>
        <mxCell id="b76iKxbdRcVmEuxKpmtq-64" value="enter" style="text;html=1;strokeColor=#d79b00;fillColor=#ffe6cc;align=center;verticalAlign=middle;whiteSpace=wrap;rounded=0;fontSize=24;" vertex="1" parent="1">
          <mxGeometry x="560" y="310" width="40" height="40" as="geometry" />
        </mxCell>
        <mxCell id="b76iKxbdRcVmEuxKpmtq-65" value="del" style="text;html=1;strokeColor=#d79b00;fillColor=#ffe6cc;align=center;verticalAlign=middle;whiteSpace=wrap;rounded=0;fontSize=24;" vertex="1" parent="1">
          <mxGeometry x="620" y="250" width="40" height="40" as="geometry" />
        </mxCell>
        <mxCell id="b76iKxbdRcVmEuxKpmtq-66" value="bspc" style="text;html=1;strokeColor=#d79b00;fillColor=#ffe6cc;align=center;verticalAlign=middle;whiteSpace=wrap;rounded=0;fontSize=24;" vertex="1" parent="1">
          <mxGeometry x="220" y="250" width="40" height="40" as="geometry" />
        </mxCell>
        <mxCell id="b76iKxbdRcVmEuxKpmtq-67" value="tab" style="text;html=1;strokeColor=#d79b00;fillColor=#ffe6cc;align=center;verticalAlign=middle;whiteSpace=wrap;rounded=0;fontSize=24;" vertex="1" parent="1">
          <mxGeometry x="220" y="190" width="40" height="40" as="geometry" />
        </mxCell>
        <mxCell id="b76iKxbdRcVmEuxKpmtq-68" value="enter" style="text;html=1;strokeColor=#d79b00;fillColor=#ffe6cc;align=center;verticalAlign=middle;whiteSpace=wrap;rounded=0;fontSize=24;" vertex="1" parent="1">
          <mxGeometry x="220" y="310" width="40" height="40" as="geometry" />
        </mxCell>
        <mxCell id="b76iKxbdRcVmEuxKpmtq-69" value="del" style="text;html=1;strokeColor=#d79b00;fillColor=#ffe6cc;align=center;verticalAlign=middle;whiteSpace=wrap;rounded=0;fontSize=24;" vertex="1" parent="1">
          <mxGeometry x="160" y="250" width="40" height="40" as="geometry" />
        </mxCell>
        <mxCell id="b76iKxbdRcVmEuxKpmtq-70" value="q" style="whiteSpace=wrap;html=1;aspect=fixed;fontSize=24;" vertex="1" parent="1">
          <mxGeometry x="60" y="510" width="60" height="60" as="geometry" />
        </mxCell>
        <mxCell id="b76iKxbdRcVmEuxKpmtq-71" value="w" style="whiteSpace=wrap;html=1;aspect=fixed;fontSize=24;" vertex="1" parent="1">
          <mxGeometry x="120" y="510" width="60" height="60" as="geometry" />
        </mxCell>
        <mxCell id="b76iKxbdRcVmEuxKpmtq-72" value="e" style="whiteSpace=wrap;html=1;aspect=fixed;fontSize=24;" vertex="1" parent="1">
          <mxGeometry x="180" y="510" width="60" height="60" as="geometry" />
        </mxCell>
        <mxCell id="b76iKxbdRcVmEuxKpmtq-73" value="r" style="whiteSpace=wrap;html=1;aspect=fixed;fontSize=24;" vertex="1" parent="1">
          <mxGeometry x="240" y="510" width="60" height="60" as="geometry" />
        </mxCell>
        <mxCell id="b76iKxbdRcVmEuxKpmtq-74" value="a" style="whiteSpace=wrap;html=1;aspect=fixed;fontSize=24;" vertex="1" parent="1">
          <mxGeometry x="60" y="570" width="60" height="60" as="geometry" />
        </mxCell>
        <mxCell id="b76iKxbdRcVmEuxKpmtq-75" value="s" style="whiteSpace=wrap;html=1;aspect=fixed;fontSize=24;" vertex="1" parent="1">
          <mxGeometry x="120" y="570" width="60" height="60" as="geometry" />
        </mxCell>
        <mxCell id="b76iKxbdRcVmEuxKpmtq-76" value="d" style="whiteSpace=wrap;html=1;aspect=fixed;fontSize=24;" vertex="1" parent="1">
          <mxGeometry x="180" y="570" width="60" height="60" as="geometry" />
        </mxCell>
        <mxCell id="b76iKxbdRcVmEuxKpmtq-77" value="f" style="whiteSpace=wrap;html=1;aspect=fixed;fontSize=24;" vertex="1" parent="1">
          <mxGeometry x="240" y="570" width="60" height="60" as="geometry" />
        </mxCell>
        <mxCell id="b76iKxbdRcVmEuxKpmtq-78" value="z" style="whiteSpace=wrap;html=1;aspect=fixed;fontSize=24;" vertex="1" parent="1">
          <mxGeometry x="60" y="630" width="60" height="60" as="geometry" />
        </mxCell>
        <mxCell id="b76iKxbdRcVmEuxKpmtq-79" value="x" style="whiteSpace=wrap;html=1;aspect=fixed;fontSize=24;" vertex="1" parent="1">
          <mxGeometry x="120" y="630" width="60" height="60" as="geometry" />
        </mxCell>
        <mxCell id="b76iKxbdRcVmEuxKpmtq-80" value="c" style="whiteSpace=wrap;html=1;aspect=fixed;fontSize=24;" vertex="1" parent="1">
          <mxGeometry x="180" y="630" width="60" height="60" as="geometry" />
        </mxCell>
        <mxCell id="b76iKxbdRcVmEuxKpmtq-81" value="v" style="whiteSpace=wrap;html=1;aspect=fixed;fontSize=24;" vertex="1" parent="1">
          <mxGeometry x="240" y="630" width="60" height="60" as="geometry" />
        </mxCell>
        <mxCell id="b76iKxbdRcVmEuxKpmtq-82" value="t" style="whiteSpace=wrap;html=1;aspect=fixed;fontSize=24;" vertex="1" parent="1">
          <mxGeometry x="300" y="510" width="60" height="60" as="geometry" />
        </mxCell>
        <mxCell id="b76iKxbdRcVmEuxKpmtq-83" value="g" style="whiteSpace=wrap;html=1;aspect=fixed;fontSize=24;" vertex="1" parent="1">
          <mxGeometry x="300" y="570" width="60" height="60" as="geometry" />
        </mxCell>
        <mxCell id="b76iKxbdRcVmEuxKpmtq-84" value="b" style="whiteSpace=wrap;html=1;aspect=fixed;fontSize=24;" vertex="1" parent="1">
          <mxGeometry x="300" y="630" width="60" height="60" as="geometry" />
        </mxCell>
        <mxCell id="b76iKxbdRcVmEuxKpmtq-85" value="" style="whiteSpace=wrap;html=1;aspect=fixed;fontSize=24;" vertex="1" parent="1">
          <mxGeometry x="210" y="690" width="60" height="60" as="geometry" />
        </mxCell>
        <mxCell id="b76iKxbdRcVmEuxKpmtq-86" value="num" style="whiteSpace=wrap;html=1;aspect=fixed;fontSize=24;" vertex="1" parent="1">
          <mxGeometry x="270" y="690" width="60" height="60" as="geometry" />
        </mxCell>
        <mxCell id="b76iKxbdRcVmEuxKpmtq-87" value="&amp;nbsp;spc" style="whiteSpace=wrap;html=1;aspect=fixed;fontSize=24;" vertex="1" parent="1">
          <mxGeometry x="330" y="690" width="60" height="60" as="geometry" />
        </mxCell>
        <mxCell id="b76iKxbdRcVmEuxKpmtq-88" value="y" style="whiteSpace=wrap;html=1;aspect=fixed;fontSize=24;" vertex="1" parent="1">
          <mxGeometry x="460" y="510" width="60" height="60" as="geometry" />
        </mxCell>
        <mxCell id="b76iKxbdRcVmEuxKpmtq-89" value="u" style="whiteSpace=wrap;html=1;aspect=fixed;fontSize=24;" vertex="1" parent="1">
          <mxGeometry x="520" y="510" width="60" height="60" as="geometry" />
        </mxCell>
        <mxCell id="b76iKxbdRcVmEuxKpmtq-90" value="i" style="whiteSpace=wrap;html=1;aspect=fixed;fontSize=24;" vertex="1" parent="1">
          <mxGeometry x="580" y="510" width="60" height="60" as="geometry" />
        </mxCell>
        <mxCell id="b76iKxbdRcVmEuxKpmtq-91" value="o" style="whiteSpace=wrap;html=1;aspect=fixed;fontSize=24;" vertex="1" parent="1">
          <mxGeometry x="640" y="510" width="60" height="60" as="geometry" />
        </mxCell>
        <mxCell id="b76iKxbdRcVmEuxKpmtq-92" value="h" style="whiteSpace=wrap;html=1;aspect=fixed;fontSize=24;" vertex="1" parent="1">
          <mxGeometry x="460" y="570" width="60" height="60" as="geometry" />
        </mxCell>
        <mxCell id="b76iKxbdRcVmEuxKpmtq-93" value="j" style="whiteSpace=wrap;html=1;aspect=fixed;fontSize=24;" vertex="1" parent="1">
          <mxGeometry x="520" y="570" width="60" height="60" as="geometry" />
        </mxCell>
        <mxCell id="b76iKxbdRcVmEuxKpmtq-94" value="k" style="whiteSpace=wrap;html=1;aspect=fixed;fontSize=24;" vertex="1" parent="1">
          <mxGeometry x="580" y="570" width="60" height="60" as="geometry" />
        </mxCell>
        <mxCell id="b76iKxbdRcVmEuxKpmtq-95" value="l" style="whiteSpace=wrap;html=1;aspect=fixed;fontSize=24;" vertex="1" parent="1">
          <mxGeometry x="640" y="570" width="60" height="60" as="geometry" />
        </mxCell>
        <mxCell id="b76iKxbdRcVmEuxKpmtq-96" value="n" style="whiteSpace=wrap;html=1;aspect=fixed;fontSize=24;" vertex="1" parent="1">
          <mxGeometry x="460" y="630" width="60" height="60" as="geometry" />
        </mxCell>
        <mxCell id="b76iKxbdRcVmEuxKpmtq-97" value="m" style="whiteSpace=wrap;html=1;aspect=fixed;fontSize=24;" vertex="1" parent="1">
          <mxGeometry x="520" y="630" width="60" height="60" as="geometry" />
        </mxCell>
        <mxCell id="b76iKxbdRcVmEuxKpmtq-98" value="," style="whiteSpace=wrap;html=1;aspect=fixed;fontSize=24;" vertex="1" parent="1">
          <mxGeometry x="580" y="630" width="60" height="60" as="geometry" />
        </mxCell>
        <mxCell id="b76iKxbdRcVmEuxKpmtq-99" value="." style="whiteSpace=wrap;html=1;aspect=fixed;fontSize=24;" vertex="1" parent="1">
          <mxGeometry x="640" y="630" width="60" height="60" as="geometry" />
        </mxCell>
        <mxCell id="b76iKxbdRcVmEuxKpmtq-100" value="p" style="whiteSpace=wrap;html=1;aspect=fixed;fontSize=24;" vertex="1" parent="1">
          <mxGeometry x="700" y="510" width="60" height="60" as="geometry" />
        </mxCell>
        <mxCell id="b76iKxbdRcVmEuxKpmtq-101" value="&#39;" style="whiteSpace=wrap;html=1;aspect=fixed;fontSize=24;" vertex="1" parent="1">
          <mxGeometry x="700" y="570" width="60" height="60" as="geometry" />
        </mxCell>
        <mxCell id="b76iKxbdRcVmEuxKpmtq-102" value=";" style="whiteSpace=wrap;html=1;aspect=fixed;fontSize=24;" vertex="1" parent="1">
          <mxGeometry x="700" y="630" width="60" height="60" as="geometry" />
        </mxCell>
        <mxCell id="b76iKxbdRcVmEuxKpmtq-103" value="shift" style="whiteSpace=wrap;html=1;aspect=fixed;fontSize=24;" vertex="1" parent="1">
          <mxGeometry x="430" y="690" width="60" height="60" as="geometry" />
        </mxCell>
        <mxCell id="b76iKxbdRcVmEuxKpmtq-104" value="nav" style="whiteSpace=wrap;html=1;aspect=fixed;fontSize=24;" vertex="1" parent="1">
          <mxGeometry x="490" y="690" width="60" height="60" as="geometry" />
        </mxCell>
        <mxCell id="b76iKxbdRcVmEuxKpmtq-105" value="" style="whiteSpace=wrap;html=1;aspect=fixed;fontSize=24;" vertex="1" parent="1">
          <mxGeometry x="550" y="690" width="60" height="60" as="geometry" />
        </mxCell>
        <mxCell id="b76iKxbdRcVmEuxKpmtq-106" value="base" style="text;html=1;strokeColor=none;fillColor=none;align=center;verticalAlign=middle;whiteSpace=wrap;rounded=0;fontSize=24;" vertex="1" parent="1">
          <mxGeometry x="60" y="450" width="130" height="50" as="geometry" />
        </mxCell>
        <mxCell id="b76iKxbdRcVmEuxKpmtq-133" value="1" style="whiteSpace=wrap;html=1;aspect=fixed;fontSize=24;" vertex="1" parent="1">
          <mxGeometry x="70" y="860" width="60" height="60" as="geometry" />
        </mxCell>
        <mxCell id="b76iKxbdRcVmEuxKpmtq-134" value="2" style="whiteSpace=wrap;html=1;aspect=fixed;fontSize=24;" vertex="1" parent="1">
          <mxGeometry x="130" y="860" width="60" height="60" as="geometry" />
        </mxCell>
        <mxCell id="b76iKxbdRcVmEuxKpmtq-135" value="3" style="whiteSpace=wrap;html=1;aspect=fixed;fontSize=24;" vertex="1" parent="1">
          <mxGeometry x="190" y="860" width="60" height="60" as="geometry" />
        </mxCell>
        <mxCell id="b76iKxbdRcVmEuxKpmtq-136" value="4" style="whiteSpace=wrap;html=1;aspect=fixed;fontSize=24;" vertex="1" parent="1">
          <mxGeometry x="250" y="860" width="60" height="60" as="geometry" />
        </mxCell>
        <mxCell id="b76iKxbdRcVmEuxKpmtq-137" value="ctrl" style="whiteSpace=wrap;html=1;aspect=fixed;fontSize=24;" vertex="1" parent="1">
          <mxGeometry x="70" y="920" width="60" height="60" as="geometry" />
        </mxCell>
        <mxCell id="b76iKxbdRcVmEuxKpmtq-138" value="gui" style="whiteSpace=wrap;html=1;aspect=fixed;fontSize=24;" vertex="1" parent="1">
          <mxGeometry x="130" y="920" width="60" height="60" as="geometry" />
        </mxCell>
        <mxCell id="b76iKxbdRcVmEuxKpmtq-139" value="alt" style="whiteSpace=wrap;html=1;aspect=fixed;fontSize=24;" vertex="1" parent="1">
          <mxGeometry x="190" y="920" width="60" height="60" as="geometry" />
        </mxCell>
        <mxCell id="b76iKxbdRcVmEuxKpmtq-140" value="shift" style="whiteSpace=wrap;html=1;aspect=fixed;fontSize=24;" vertex="1" parent="1">
          <mxGeometry x="250" y="920" width="60" height="60" as="geometry" />
        </mxCell>
        <mxCell id="b76iKxbdRcVmEuxKpmtq-141" value="esc" style="whiteSpace=wrap;html=1;aspect=fixed;fontSize=24;" vertex="1" parent="1">
          <mxGeometry x="70" y="980" width="60" height="60" as="geometry" />
        </mxCell>
        <mxCell id="b76iKxbdRcVmEuxKpmtq-142" value="`" style="whiteSpace=wrap;html=1;aspect=fixed;fontSize=24;" vertex="1" parent="1">
          <mxGeometry x="130" y="980" width="60" height="60" as="geometry" />
        </mxCell>
        <mxCell id="b76iKxbdRcVmEuxKpmtq-143" value="-" style="whiteSpace=wrap;html=1;aspect=fixed;fontSize=24;" vertex="1" parent="1">
          <mxGeometry x="190" y="980" width="60" height="60" as="geometry" />
        </mxCell>
        <mxCell id="b76iKxbdRcVmEuxKpmtq-144" value="=" style="whiteSpace=wrap;html=1;aspect=fixed;fontSize=24;" vertex="1" parent="1">
          <mxGeometry x="250" y="980" width="60" height="60" as="geometry" />
        </mxCell>
        <mxCell id="b76iKxbdRcVmEuxKpmtq-145" value="5" style="whiteSpace=wrap;html=1;aspect=fixed;fontSize=24;" vertex="1" parent="1">
          <mxGeometry x="310" y="860" width="60" height="60" as="geometry" />
        </mxCell>
        <mxCell id="b76iKxbdRcVmEuxKpmtq-146" value="" style="whiteSpace=wrap;html=1;aspect=fixed;fontSize=24;" vertex="1" parent="1">
          <mxGeometry x="310" y="920" width="60" height="60" as="geometry" />
        </mxCell>
        <mxCell id="b76iKxbdRcVmEuxKpmtq-147" value="" style="whiteSpace=wrap;html=1;aspect=fixed;fontSize=24;" vertex="1" parent="1">
          <mxGeometry x="310" y="980" width="60" height="60" as="geometry" />
        </mxCell>
        <mxCell id="b76iKxbdRcVmEuxKpmtq-148" value="" style="whiteSpace=wrap;html=1;aspect=fixed;fontSize=24;" vertex="1" parent="1">
          <mxGeometry x="220" y="1040" width="60" height="60" as="geometry" />
        </mxCell>
        <mxCell id="b76iKxbdRcVmEuxKpmtq-149" value="num" style="whiteSpace=wrap;html=1;aspect=fixed;fontSize=24;fillColor=#f5f5f5;fontColor=#333333;strokeColor=#666666;" vertex="1" parent="1">
          <mxGeometry x="280" y="1040" width="60" height="60" as="geometry" />
        </mxCell>
        <mxCell id="b76iKxbdRcVmEuxKpmtq-150" value="&amp;nbsp;spc" style="whiteSpace=wrap;html=1;aspect=fixed;fontSize=24;" vertex="1" parent="1">
          <mxGeometry x="340" y="1040" width="60" height="60" as="geometry" />
        </mxCell>
        <mxCell id="b76iKxbdRcVmEuxKpmtq-151" value="6" style="whiteSpace=wrap;html=1;aspect=fixed;fontSize=24;" vertex="1" parent="1">
          <mxGeometry x="470" y="860" width="60" height="60" as="geometry" />
        </mxCell>
        <mxCell id="b76iKxbdRcVmEuxKpmtq-152" value="7" style="whiteSpace=wrap;html=1;aspect=fixed;fontSize=24;" vertex="1" parent="1">
          <mxGeometry x="530" y="860" width="60" height="60" as="geometry" />
        </mxCell>
        <mxCell id="b76iKxbdRcVmEuxKpmtq-153" value="8" style="whiteSpace=wrap;html=1;aspect=fixed;fontSize=24;" vertex="1" parent="1">
          <mxGeometry x="590" y="860" width="60" height="60" as="geometry" />
        </mxCell>
        <mxCell id="b76iKxbdRcVmEuxKpmtq-154" value="9" style="whiteSpace=wrap;html=1;aspect=fixed;fontSize=24;" vertex="1" parent="1">
          <mxGeometry x="650" y="860" width="60" height="60" as="geometry" />
        </mxCell>
        <mxCell id="b76iKxbdRcVmEuxKpmtq-155" value="" style="whiteSpace=wrap;html=1;aspect=fixed;fontSize=24;" vertex="1" parent="1">
          <mxGeometry x="470" y="920" width="60" height="60" as="geometry" />
        </mxCell>
        <mxCell id="b76iKxbdRcVmEuxKpmtq-156" value="shift" style="whiteSpace=wrap;html=1;aspect=fixed;fontSize=24;" vertex="1" parent="1">
          <mxGeometry x="530" y="920" width="60" height="60" as="geometry" />
        </mxCell>
        <mxCell id="b76iKxbdRcVmEuxKpmtq-157" value="alt" style="whiteSpace=wrap;html=1;aspect=fixed;fontSize=24;" vertex="1" parent="1">
          <mxGeometry x="590" y="920" width="60" height="60" as="geometry" />
        </mxCell>
        <mxCell id="b76iKxbdRcVmEuxKpmtq-158" value="gui" style="whiteSpace=wrap;html=1;aspect=fixed;fontSize=24;" vertex="1" parent="1">
          <mxGeometry x="650" y="920" width="60" height="60" as="geometry" />
        </mxCell>
        <mxCell id="b76iKxbdRcVmEuxKpmtq-159" value="" style="whiteSpace=wrap;html=1;aspect=fixed;fontSize=24;" vertex="1" parent="1">
          <mxGeometry x="470" y="980" width="60" height="60" as="geometry" />
        </mxCell>
        <mxCell id="b76iKxbdRcVmEuxKpmtq-160" value="[" style="whiteSpace=wrap;html=1;aspect=fixed;fontSize=24;" vertex="1" parent="1">
          <mxGeometry x="530" y="980" width="60" height="60" as="geometry" />
        </mxCell>
        <mxCell id="b76iKxbdRcVmEuxKpmtq-161" value="]" style="whiteSpace=wrap;html=1;aspect=fixed;fontSize=24;" vertex="1" parent="1">
          <mxGeometry x="590" y="980" width="60" height="60" as="geometry" />
        </mxCell>
        <mxCell id="b76iKxbdRcVmEuxKpmtq-162" value="\" style="whiteSpace=wrap;html=1;aspect=fixed;fontSize=24;" vertex="1" parent="1">
          <mxGeometry x="650" y="980" width="60" height="60" as="geometry" />
        </mxCell>
        <mxCell id="b76iKxbdRcVmEuxKpmtq-163" value="0" style="whiteSpace=wrap;html=1;aspect=fixed;fontSize=24;" vertex="1" parent="1">
          <mxGeometry x="710" y="860" width="60" height="60" as="geometry" />
        </mxCell>
        <mxCell id="b76iKxbdRcVmEuxKpmtq-164" value="ctrl" style="whiteSpace=wrap;html=1;aspect=fixed;fontSize=24;" vertex="1" parent="1">
          <mxGeometry x="710" y="920" width="60" height="60" as="geometry" />
        </mxCell>
        <mxCell id="b76iKxbdRcVmEuxKpmtq-165" value="/" style="whiteSpace=wrap;html=1;aspect=fixed;fontSize=24;" vertex="1" parent="1">
          <mxGeometry x="710" y="980" width="60" height="60" as="geometry" />
        </mxCell>
        <mxCell id="b76iKxbdRcVmEuxKpmtq-166" value="shift" style="whiteSpace=wrap;html=1;aspect=fixed;fontSize=24;" vertex="1" parent="1">
          <mxGeometry x="440" y="1040" width="60" height="60" as="geometry" />
        </mxCell>
        <mxCell id="b76iKxbdRcVmEuxKpmtq-167" value="nav" style="whiteSpace=wrap;html=1;aspect=fixed;fontSize=24;" vertex="1" parent="1">
          <mxGeometry x="500" y="1040" width="60" height="60" as="geometry" />
        </mxCell>
        <mxCell id="b76iKxbdRcVmEuxKpmtq-168" value="" style="whiteSpace=wrap;html=1;aspect=fixed;fontSize=24;" vertex="1" parent="1">
          <mxGeometry x="560" y="1040" width="60" height="60" as="geometry" />
        </mxCell>
        <mxCell id="b76iKxbdRcVmEuxKpmtq-169" value="num (= vertical combos)" style="text;html=1;strokeColor=none;fillColor=none;align=center;verticalAlign=middle;whiteSpace=wrap;rounded=0;fontSize=24;" vertex="1" parent="1">
          <mxGeometry x="70" y="800" width="300" height="50" as="geometry" />
        </mxCell>
        <mxCell id="b76iKxbdRcVmEuxKpmtq-170" value="" style="whiteSpace=wrap;html=1;aspect=fixed;fontSize=24;" vertex="1" parent="1">
          <mxGeometry x="70" y="1200" width="60" height="60" as="geometry" />
        </mxCell>
        <mxCell id="b76iKxbdRcVmEuxKpmtq-171" value="" style="whiteSpace=wrap;html=1;aspect=fixed;fontSize=24;" vertex="1" parent="1">
          <mxGeometry x="130" y="1200" width="60" height="60" as="geometry" />
        </mxCell>
        <mxCell id="b76iKxbdRcVmEuxKpmtq-172" value="" style="whiteSpace=wrap;html=1;aspect=fixed;fontSize=24;" vertex="1" parent="1">
          <mxGeometry x="190" y="1200" width="60" height="60" as="geometry" />
        </mxCell>
        <mxCell id="b76iKxbdRcVmEuxKpmtq-173" value="" style="whiteSpace=wrap;html=1;aspect=fixed;fontSize=24;" vertex="1" parent="1">
          <mxGeometry x="250" y="1200" width="60" height="60" as="geometry" />
        </mxCell>
        <mxCell id="b76iKxbdRcVmEuxKpmtq-178" value="" style="whiteSpace=wrap;html=1;aspect=fixed;fontSize=24;" vertex="1" parent="1">
          <mxGeometry x="70" y="1320" width="60" height="60" as="geometry" />
        </mxCell>
        <mxCell id="b76iKxbdRcVmEuxKpmtq-179" value="" style="whiteSpace=wrap;html=1;aspect=fixed;fontSize=24;" vertex="1" parent="1">
          <mxGeometry x="130" y="1320" width="60" height="60" as="geometry" />
        </mxCell>
        <mxCell id="b76iKxbdRcVmEuxKpmtq-180" value="" style="whiteSpace=wrap;html=1;aspect=fixed;fontSize=24;" vertex="1" parent="1">
          <mxGeometry x="190" y="1320" width="60" height="60" as="geometry" />
        </mxCell>
        <mxCell id="b76iKxbdRcVmEuxKpmtq-181" value="" style="whiteSpace=wrap;html=1;aspect=fixed;fontSize=24;" vertex="1" parent="1">
          <mxGeometry x="250" y="1320" width="60" height="60" as="geometry" />
        </mxCell>
        <mxCell id="b76iKxbdRcVmEuxKpmtq-182" value="" style="whiteSpace=wrap;html=1;aspect=fixed;fontSize=24;" vertex="1" parent="1">
          <mxGeometry x="310" y="1200" width="60" height="60" as="geometry" />
        </mxCell>
        <mxCell id="b76iKxbdRcVmEuxKpmtq-183" value="" style="whiteSpace=wrap;html=1;aspect=fixed;fontSize=24;" vertex="1" parent="1">
          <mxGeometry x="310" y="1260" width="60" height="60" as="geometry" />
        </mxCell>
        <mxCell id="b76iKxbdRcVmEuxKpmtq-184" value="" style="whiteSpace=wrap;html=1;aspect=fixed;fontSize=24;" vertex="1" parent="1">
          <mxGeometry x="310" y="1320" width="60" height="60" as="geometry" />
        </mxCell>
        <mxCell id="b76iKxbdRcVmEuxKpmtq-185" value="" style="whiteSpace=wrap;html=1;aspect=fixed;fontSize=24;" vertex="1" parent="1">
          <mxGeometry x="220" y="1380" width="60" height="60" as="geometry" />
        </mxCell>
        <mxCell id="b76iKxbdRcVmEuxKpmtq-186" value="num" style="whiteSpace=wrap;html=1;aspect=fixed;fontSize=24;" vertex="1" parent="1">
          <mxGeometry x="280" y="1380" width="60" height="60" as="geometry" />
        </mxCell>
        <mxCell id="b76iKxbdRcVmEuxKpmtq-187" value="&amp;nbsp;spc" style="whiteSpace=wrap;html=1;aspect=fixed;fontSize=24;" vertex="1" parent="1">
          <mxGeometry x="340" y="1380" width="60" height="60" as="geometry" />
        </mxCell>
        <mxCell id="b76iKxbdRcVmEuxKpmtq-188" value="home" style="whiteSpace=wrap;html=1;aspect=fixed;fontSize=24;" vertex="1" parent="1">
          <mxGeometry x="470" y="1200" width="60" height="60" as="geometry" />
        </mxCell>
        <mxCell id="b76iKxbdRcVmEuxKpmtq-189" value="pgup" style="whiteSpace=wrap;html=1;aspect=fixed;fontSize=24;" vertex="1" parent="1">
          <mxGeometry x="530" y="1200" width="60" height="60" as="geometry" />
        </mxCell>
        <mxCell id="b76iKxbdRcVmEuxKpmtq-190" value="pgdn" style="whiteSpace=wrap;html=1;aspect=fixed;fontSize=24;" vertex="1" parent="1">
          <mxGeometry x="590" y="1200" width="60" height="60" as="geometry" />
        </mxCell>
        <mxCell id="b76iKxbdRcVmEuxKpmtq-191" value="end" style="whiteSpace=wrap;html=1;aspect=fixed;fontSize=24;" vertex="1" parent="1">
          <mxGeometry x="650" y="1200" width="60" height="60" as="geometry" />
        </mxCell>
        <mxCell id="b76iKxbdRcVmEuxKpmtq-192" value="left" style="whiteSpace=wrap;html=1;aspect=fixed;fontSize=24;" vertex="1" parent="1">
          <mxGeometry x="470" y="1260" width="60" height="60" as="geometry" />
        </mxCell>
        <mxCell id="b76iKxbdRcVmEuxKpmtq-193" value="up" style="whiteSpace=wrap;html=1;aspect=fixed;fontSize=24;" vertex="1" parent="1">
          <mxGeometry x="530" y="1260" width="60" height="60" as="geometry" />
        </mxCell>
        <mxCell id="b76iKxbdRcVmEuxKpmtq-194" value="down" style="whiteSpace=wrap;html=1;aspect=fixed;fontSize=24;" vertex="1" parent="1">
          <mxGeometry x="590" y="1260" width="60" height="60" as="geometry" />
        </mxCell>
        <mxCell id="b76iKxbdRcVmEuxKpmtq-195" value="right" style="whiteSpace=wrap;html=1;aspect=fixed;fontSize=24;" vertex="1" parent="1">
          <mxGeometry x="650" y="1260" width="60" height="60" as="geometry" />
        </mxCell>
        <mxCell id="b76iKxbdRcVmEuxKpmtq-196" value="" style="whiteSpace=wrap;html=1;aspect=fixed;fontSize=24;" vertex="1" parent="1">
          <mxGeometry x="470" y="1320" width="60" height="60" as="geometry" />
        </mxCell>
        <mxCell id="b76iKxbdRcVmEuxKpmtq-197" value="" style="whiteSpace=wrap;html=1;aspect=fixed;fontSize=24;" vertex="1" parent="1">
          <mxGeometry x="530" y="1320" width="60" height="60" as="geometry" />
        </mxCell>
        <mxCell id="b76iKxbdRcVmEuxKpmtq-198" value="" style="whiteSpace=wrap;html=1;aspect=fixed;fontSize=24;" vertex="1" parent="1">
          <mxGeometry x="590" y="1320" width="60" height="60" as="geometry" />
        </mxCell>
        <mxCell id="b76iKxbdRcVmEuxKpmtq-199" value="" style="whiteSpace=wrap;html=1;aspect=fixed;fontSize=24;" vertex="1" parent="1">
          <mxGeometry x="650" y="1320" width="60" height="60" as="geometry" />
        </mxCell>
        <mxCell id="b76iKxbdRcVmEuxKpmtq-200" value="" style="whiteSpace=wrap;html=1;aspect=fixed;fontSize=24;" vertex="1" parent="1">
          <mxGeometry x="710" y="1200" width="60" height="60" as="geometry" />
        </mxCell>
        <mxCell id="b76iKxbdRcVmEuxKpmtq-201" value="" style="whiteSpace=wrap;html=1;aspect=fixed;fontSize=24;" vertex="1" parent="1">
          <mxGeometry x="710" y="1260" width="60" height="60" as="geometry" />
        </mxCell>
        <mxCell id="b76iKxbdRcVmEuxKpmtq-202" value="" style="whiteSpace=wrap;html=1;aspect=fixed;fontSize=24;" vertex="1" parent="1">
          <mxGeometry x="710" y="1320" width="60" height="60" as="geometry" />
        </mxCell>
        <mxCell id="b76iKxbdRcVmEuxKpmtq-203" value="shift" style="whiteSpace=wrap;html=1;aspect=fixed;fontSize=24;" vertex="1" parent="1">
          <mxGeometry x="440" y="1380" width="60" height="60" as="geometry" />
        </mxCell>
        <mxCell id="b76iKxbdRcVmEuxKpmtq-204" value="nav" style="whiteSpace=wrap;html=1;aspect=fixed;fontSize=24;fillColor=#f5f5f5;fontColor=#333333;strokeColor=#666666;" vertex="1" parent="1">
          <mxGeometry x="500" y="1380" width="60" height="60" as="geometry" />
        </mxCell>
        <mxCell id="b76iKxbdRcVmEuxKpmtq-205" value="" style="whiteSpace=wrap;html=1;aspect=fixed;fontSize=24;" vertex="1" parent="1">
          <mxGeometry x="560" y="1380" width="60" height="60" as="geometry" />
        </mxCell>
        <mxCell id="b76iKxbdRcVmEuxKpmtq-206" value="nav" style="text;html=1;strokeColor=none;fillColor=none;align=center;verticalAlign=middle;whiteSpace=wrap;rounded=0;fontSize=24;" vertex="1" parent="1">
          <mxGeometry x="70" y="1140" width="130" height="50" as="geometry" />
        </mxCell>
        <mxCell id="b76iKxbdRcVmEuxKpmtq-207" value="f1" style="whiteSpace=wrap;html=1;aspect=fixed;fontSize=24;" vertex="1" parent="1">
          <mxGeometry x="75" y="1580" width="60" height="60" as="geometry" />
        </mxCell>
        <mxCell id="b76iKxbdRcVmEuxKpmtq-208" value="f2" style="whiteSpace=wrap;html=1;aspect=fixed;fontSize=24;" vertex="1" parent="1">
          <mxGeometry x="135" y="1580" width="60" height="60" as="geometry" />
        </mxCell>
        <mxCell id="b76iKxbdRcVmEuxKpmtq-209" value="f3" style="whiteSpace=wrap;html=1;aspect=fixed;fontSize=24;" vertex="1" parent="1">
          <mxGeometry x="195" y="1580" width="60" height="60" as="geometry" />
        </mxCell>
        <mxCell id="b76iKxbdRcVmEuxKpmtq-210" value="f4" style="whiteSpace=wrap;html=1;aspect=fixed;fontSize=24;" vertex="1" parent="1">
          <mxGeometry x="255" y="1580" width="60" height="60" as="geometry" />
        </mxCell>
        <mxCell id="b76iKxbdRcVmEuxKpmtq-215" value="" style="whiteSpace=wrap;html=1;aspect=fixed;fontSize=24;" vertex="1" parent="1">
          <mxGeometry x="75" y="1700" width="60" height="60" as="geometry" />
        </mxCell>
        <mxCell id="b76iKxbdRcVmEuxKpmtq-216" value="" style="whiteSpace=wrap;html=1;aspect=fixed;fontSize=24;" vertex="1" parent="1">
          <mxGeometry x="135" y="1700" width="60" height="60" as="geometry" />
        </mxCell>
        <mxCell id="b76iKxbdRcVmEuxKpmtq-217" value="" style="whiteSpace=wrap;html=1;aspect=fixed;fontSize=24;" vertex="1" parent="1">
          <mxGeometry x="195" y="1700" width="60" height="60" as="geometry" />
        </mxCell>
        <mxCell id="b76iKxbdRcVmEuxKpmtq-218" value="" style="whiteSpace=wrap;html=1;aspect=fixed;fontSize=24;" vertex="1" parent="1">
          <mxGeometry x="255" y="1700" width="60" height="60" as="geometry" />
        </mxCell>
        <mxCell id="b76iKxbdRcVmEuxKpmtq-219" value="f5" style="whiteSpace=wrap;html=1;aspect=fixed;fontSize=24;" vertex="1" parent="1">
          <mxGeometry x="315" y="1580" width="60" height="60" as="geometry" />
        </mxCell>
        <mxCell id="b76iKxbdRcVmEuxKpmtq-221" value="" style="whiteSpace=wrap;html=1;aspect=fixed;fontSize=24;" vertex="1" parent="1">
          <mxGeometry x="315" y="1700" width="60" height="60" as="geometry" />
        </mxCell>
        <mxCell id="b76iKxbdRcVmEuxKpmtq-222" value="" style="whiteSpace=wrap;html=1;aspect=fixed;fontSize=24;" vertex="1" parent="1">
          <mxGeometry x="225" y="1760" width="60" height="60" as="geometry" />
        </mxCell>
        <mxCell id="b76iKxbdRcVmEuxKpmtq-223" value="num" style="whiteSpace=wrap;html=1;aspect=fixed;fontSize=24;" vertex="1" parent="1">
          <mxGeometry x="285" y="1760" width="60" height="60" as="geometry" />
        </mxCell>
        <mxCell id="b76iKxbdRcVmEuxKpmtq-224" value="&amp;nbsp;spc" style="whiteSpace=wrap;html=1;aspect=fixed;fontSize=24;" vertex="1" parent="1">
          <mxGeometry x="345" y="1760" width="60" height="60" as="geometry" />
        </mxCell>
        <mxCell id="b76iKxbdRcVmEuxKpmtq-225" value="f6" style="whiteSpace=wrap;html=1;aspect=fixed;fontSize=24;" vertex="1" parent="1">
          <mxGeometry x="475" y="1580" width="60" height="60" as="geometry" />
        </mxCell>
        <mxCell id="b76iKxbdRcVmEuxKpmtq-226" value="f7" style="whiteSpace=wrap;html=1;aspect=fixed;fontSize=24;" vertex="1" parent="1">
          <mxGeometry x="535" y="1580" width="60" height="60" as="geometry" />
        </mxCell>
        <mxCell id="b76iKxbdRcVmEuxKpmtq-227" value="f8" style="whiteSpace=wrap;html=1;aspect=fixed;fontSize=24;" vertex="1" parent="1">
          <mxGeometry x="595" y="1580" width="60" height="60" as="geometry" />
        </mxCell>
        <mxCell id="b76iKxbdRcVmEuxKpmtq-228" value="f9" style="whiteSpace=wrap;html=1;aspect=fixed;fontSize=24;" vertex="1" parent="1">
          <mxGeometry x="655" y="1580" width="60" height="60" as="geometry" />
        </mxCell>
        <mxCell id="b76iKxbdRcVmEuxKpmtq-233" value="" style="whiteSpace=wrap;html=1;aspect=fixed;fontSize=24;" vertex="1" parent="1">
          <mxGeometry x="475" y="1700" width="60" height="60" as="geometry" />
        </mxCell>
        <mxCell id="b76iKxbdRcVmEuxKpmtq-234" value="" style="whiteSpace=wrap;html=1;aspect=fixed;fontSize=24;" vertex="1" parent="1">
          <mxGeometry x="535" y="1700" width="60" height="60" as="geometry" />
        </mxCell>
        <mxCell id="b76iKxbdRcVmEuxKpmtq-235" value="" style="whiteSpace=wrap;html=1;aspect=fixed;fontSize=24;" vertex="1" parent="1">
          <mxGeometry x="595" y="1700" width="60" height="60" as="geometry" />
        </mxCell>
        <mxCell id="b76iKxbdRcVmEuxKpmtq-236" value="" style="whiteSpace=wrap;html=1;aspect=fixed;fontSize=24;" vertex="1" parent="1">
          <mxGeometry x="655" y="1700" width="60" height="60" as="geometry" />
        </mxCell>
        <mxCell id="b76iKxbdRcVmEuxKpmtq-237" value="f10" style="whiteSpace=wrap;html=1;aspect=fixed;fontSize=24;" vertex="1" parent="1">
          <mxGeometry x="715" y="1580" width="60" height="60" as="geometry" />
        </mxCell>
        <mxCell id="b76iKxbdRcVmEuxKpmtq-239" value="" style="whiteSpace=wrap;html=1;aspect=fixed;fontSize=24;" vertex="1" parent="1">
          <mxGeometry x="715" y="1700" width="60" height="60" as="geometry" />
        </mxCell>
        <mxCell id="b76iKxbdRcVmEuxKpmtq-240" value="shift" style="whiteSpace=wrap;html=1;aspect=fixed;fontSize=24;" vertex="1" parent="1">
          <mxGeometry x="445" y="1760" width="60" height="60" as="geometry" />
        </mxCell>
        <mxCell id="b76iKxbdRcVmEuxKpmtq-241" value="nav" style="whiteSpace=wrap;html=1;aspect=fixed;fontSize=24;" vertex="1" parent="1">
          <mxGeometry x="505" y="1760" width="60" height="60" as="geometry" />
        </mxCell>
        <mxCell id="b76iKxbdRcVmEuxKpmtq-242" value="" style="whiteSpace=wrap;html=1;aspect=fixed;fontSize=24;" vertex="1" parent="1">
          <mxGeometry x="565" y="1760" width="60" height="60" as="geometry" />
        </mxCell>
        <mxCell id="b76iKxbdRcVmEuxKpmtq-243" value="functions" style="text;html=1;strokeColor=none;fillColor=none;align=center;verticalAlign=middle;whiteSpace=wrap;rounded=0;fontSize=24;" vertex="1" parent="1">
          <mxGeometry x="75" y="1520" width="130" height="50" as="geometry" />
        </mxCell>
        <mxCell id="b76iKxbdRcVmEuxKpmtq-244" value="ctrl" style="whiteSpace=wrap;html=1;aspect=fixed;fontSize=24;" vertex="1" parent="1">
          <mxGeometry x="70" y="1260" width="60" height="60" as="geometry" />
        </mxCell>
        <mxCell id="b76iKxbdRcVmEuxKpmtq-245" value="gui" style="whiteSpace=wrap;html=1;aspect=fixed;fontSize=24;" vertex="1" parent="1">
          <mxGeometry x="130" y="1260" width="60" height="60" as="geometry" />
        </mxCell>
        <mxCell id="b76iKxbdRcVmEuxKpmtq-246" value="alt" style="whiteSpace=wrap;html=1;aspect=fixed;fontSize=24;" vertex="1" parent="1">
          <mxGeometry x="190" y="1260" width="60" height="60" as="geometry" />
        </mxCell>
        <mxCell id="b76iKxbdRcVmEuxKpmtq-247" value="shift" style="whiteSpace=wrap;html=1;aspect=fixed;fontSize=24;" vertex="1" parent="1">
          <mxGeometry x="250" y="1260" width="60" height="60" as="geometry" />
        </mxCell>
        <mxCell id="b76iKxbdRcVmEuxKpmtq-248" value="ctrl" style="whiteSpace=wrap;html=1;aspect=fixed;fontSize=24;" vertex="1" parent="1">
          <mxGeometry x="75" y="1640" width="60" height="60" as="geometry" />
        </mxCell>
        <mxCell id="b76iKxbdRcVmEuxKpmtq-249" value="gui" style="whiteSpace=wrap;html=1;aspect=fixed;fontSize=24;" vertex="1" parent="1">
          <mxGeometry x="135" y="1640" width="60" height="60" as="geometry" />
        </mxCell>
        <mxCell id="b76iKxbdRcVmEuxKpmtq-250" value="alt" style="whiteSpace=wrap;html=1;aspect=fixed;fontSize=24;" vertex="1" parent="1">
          <mxGeometry x="195" y="1640" width="60" height="60" as="geometry" />
        </mxCell>
        <mxCell id="b76iKxbdRcVmEuxKpmtq-251" value="shift" style="whiteSpace=wrap;html=1;aspect=fixed;fontSize=24;" vertex="1" parent="1">
          <mxGeometry x="255" y="1640" width="60" height="60" as="geometry" />
        </mxCell>
        <mxCell id="b76iKxbdRcVmEuxKpmtq-252" value="f11" style="whiteSpace=wrap;html=1;aspect=fixed;fontSize=24;" vertex="1" parent="1">
          <mxGeometry x="315" y="1640" width="60" height="60" as="geometry" />
        </mxCell>
        <mxCell id="b76iKxbdRcVmEuxKpmtq-253" value="f12" style="whiteSpace=wrap;html=1;aspect=fixed;fontSize=24;" vertex="1" parent="1">
          <mxGeometry x="475" y="1640" width="60" height="60" as="geometry" />
        </mxCell>
        <mxCell id="b76iKxbdRcVmEuxKpmtq-254" value="shift" style="whiteSpace=wrap;html=1;aspect=fixed;fontSize=24;" vertex="1" parent="1">
          <mxGeometry x="535" y="1640" width="60" height="60" as="geometry" />
        </mxCell>
        <mxCell id="b76iKxbdRcVmEuxKpmtq-255" value="alt" style="whiteSpace=wrap;html=1;aspect=fixed;fontSize=24;" vertex="1" parent="1">
          <mxGeometry x="595" y="1640" width="60" height="60" as="geometry" />
        </mxCell>
        <mxCell id="b76iKxbdRcVmEuxKpmtq-256" value="gui" style="whiteSpace=wrap;html=1;aspect=fixed;fontSize=24;" vertex="1" parent="1">
          <mxGeometry x="655" y="1640" width="60" height="60" as="geometry" />
        </mxCell>
        <mxCell id="b76iKxbdRcVmEuxKpmtq-257" value="ctrl" style="whiteSpace=wrap;html=1;aspect=fixed;fontSize=24;" vertex="1" parent="1">
          <mxGeometry x="715" y="1640" width="60" height="60" as="geometry" />
        </mxCell>
      </root>
    </mxGraphModel>
  </diagram>
</mxfile>
